{
    "asset" : {
        "generator" : "Khronos glTF Blender I/O v1.3.48",
        "version" : "2.0"
    },
    "scene" : 0,
    "scenes" : [
        {
            "name" : "Scene",
            "nodes" : [
                5
            ]
        }
    ],
    "nodes" : [
        {
            "name" : "Cube",
            "rotation" : [
                0.7071068286895752,
                -3.090862321641907e-08,
                -3.090862321641907e-08,
                0.7071068286895752
            ],
            "translation" : [
                0.11673708260059357,
                1.4390126466751099,
                0.028253229334950447
            ]
        },
        {
            "name" : "Shoutr_txt",
            "rotation" : [
                0.7071068286895752,
                -1.1520233300643667e-07,
                -1.1520233300643667e-07,
                0.7071068286895752
            ],
            "translation" : [
                -0.22672678530216217,
                1.4390126466751099,
                0.028253229334950447
            ]
        },
        {
            "name" : "Labs_text",
            "rotation" : [
                0.7071068286895752,
                -1.9949604279645428e-07,
                -1.9949604279645428e-07,
                0.7071068286895752
            ],
            "translation" : [
                0.366430401802063,
                1.4390126466751099,
                0.028253229334950447
            ]
        },
        {
            "children" : [
                0,
                1,
                2
            ],
            "name" : "root"
        },
        {
            "mesh" : 0,
            "name" : "Cube.withModiiers",
            "skin" : 0
        },
        {
            "children" : [
                4,
                3
            ],
            "name" : "Armature"
        }
    ],
    "animations" : [
        {
            "channels" : [
                {
                    "sampler" : 0,
                    "target" : {
                        "node" : 3,
                        "path" : "translation"
                    }
                },
                {
                    "sampler" : 1,
                    "target" : {
                        "node" : 3,
                        "path" : "rotation"
                    }
                },
                {
                    "sampler" : 2,
                    "target" : {
                        "node" : 3,
                        "path" : "scale"
                    }
                },
                {
                    "sampler" : 3,
                    "target" : {
                        "node" : 0,
                        "path" : "translation"
                    }
                },
                {
                    "sampler" : 4,
                    "target" : {
                        "node" : 0,
                        "path" : "rotation"
                    }
                },
                {
                    "sampler" : 5,
                    "target" : {
                        "node" : 0,
                        "path" : "scale"
                    }
                },
                {
                    "sampler" : 6,
                    "target" : {
                        "node" : 1,
                        "path" : "translation"
                    }
                },
                {
                    "sampler" : 7,
                    "target" : {
                        "node" : 1,
                        "path" : "rotation"
                    }
                },
                {
                    "sampler" : 8,
                    "target" : {
                        "node" : 1,
                        "path" : "scale"
                    }
                },
                {
                    "sampler" : 9,
                    "target" : {
                        "node" : 2,
                        "path" : "translation"
                    }
                },
                {
                    "sampler" : 10,
                    "target" : {
                        "node" : 2,
                        "path" : "rotation"
                    }
                },
                {
                    "sampler" : 11,
                    "target" : {
                        "node" : 2,
                        "path" : "scale"
                    }
                }
            ],
            "name" : "ArmatureAction",
            "samplers" : [
                {
                    "input" : 7,
                    "interpolation" : "LINEAR",
                    "output" : 8
                },
                {
                    "input" : 7,
                    "interpolation" : "LINEAR",
                    "output" : 9
                },
                {
                    "input" : 7,
                    "interpolation" : "LINEAR",
                    "output" : 10
                },
                {
                    "input" : 7,
                    "interpolation" : "LINEAR",
                    "output" : 11
                },
                {
                    "input" : 7,
                    "interpolation" : "LINEAR",
                    "output" : 12
                },
                {
                    "input" : 7,
                    "interpolation" : "LINEAR",
                    "output" : 13
                },
                {
                    "input" : 7,
                    "interpolation" : "LINEAR",
                    "output" : 14
                },
                {
                    "input" : 7,
                    "interpolation" : "LINEAR",
                    "output" : 15
                },
                {
                    "input" : 7,
                    "interpolation" : "LINEAR",
                    "output" : 16
                },
                {
                    "input" : 7,
                    "interpolation" : "LINEAR",
                    "output" : 17
                },
                {
                    "input" : 7,
                    "interpolation" : "LINEAR",
                    "output" : 18
                },
                {
                    "input" : 7,
                    "interpolation" : "LINEAR",
                    "output" : 19
                }
            ]
        }
    ],
    "materials" : [
        {
            "doubleSided" : true,
            "emissiveFactor" : [
                0,
                0,
                0
            ],
            "name" : "ShoutrLogo",
            "pbrMetallicRoughness" : {
                "baseColorTexture" : {
                    "index" : 0,
                    "texCoord" : 0
                },
                "metallicRoughnessTexture" : {
                    "index" : 1,
                    "texCoord" : 0
                }
            }
        }
    ],
    "meshes" : [
        {
            "name" : "Cube.003",
            "primitives" : [
                {
                    "attributes" : {
                        "POSITION" : 0,
                        "NORMAL" : 1,
                        "TEXCOORD_0" : 2,
                        "JOINTS_0" : 3,
                        "WEIGHTS_0" : 4
                    },
                    "indices" : 5,
                    "material" : 0
                }
            ]
        }
    ],
    "textures" : [
        {
            "source" : 0
        },
        {
            "source" : 1
        }
    ],
    "images" : [
        {
            "bufferView" : 6,
            "mimeType" : "image/jpeg",
            "name" : "ShoutrLogo_BaseCol_NoAlpha"
        },
        {
            "bufferView" : 7,
            "mimeType" : "image/jpeg",
            "name" : "ShoutrLogo_R-AO_G_Rough_B_Metal"
        }
    ],
    "skins" : [
        {
            "inverseBindMatrices" : 6,
            "joints" : [
                3,
                0,
                1,
                2
            ],
            "name" : "Armature"
        }
    ],
    "accessors" : [
        {
            "bufferView" : 0,
            "componentType" : 5126,
            "count" : 5121,
            "max" : [
                0.5023393034934998,
                1.510001540184021,
                0.09995689988136292
            ],
            "min" : [
                -0.5057854652404785,
                1.3665941953659058,
                -0.04345044493675232
            ],
            "type" : "VEC3"
        },
        {
            "bufferView" : 1,
            "componentType" : 5126,
            "count" : 5121,
            "type" : "VEC3"
        },
        {
            "bufferView" : 2,
            "componentType" : 5126,
            "count" : 5121,
            "type" : "VEC2"
        },
        {
            "bufferView" : 3,
            "componentType" : 5123,
            "count" : 5121,
            "type" : "VEC4"
        },
        {
            "bufferView" : 4,
            "componentType" : 5126,
            "count" : 5121,
            "type" : "VEC4"
        },
        {
            "bufferView" : 5,
            "componentType" : 5123,
            "count" : 14934,
            "type" : "SCALAR"
        },
        {
            "bufferView" : 8,
            "componentType" : 5126,
            "count" : 4,
            "type" : "MAT4"
        },
        {
            "bufferView" : 9,
            "componentType" : 5126,
            "count" : 63,
            "max" : [
                2.5833333333333335
            ],
            "min" : [
                0
            ],
            "type" : "SCALAR"
        },
        {
            "bufferView" : 10,
            "componentType" : 5126,
            "count" : 63,
            "type" : "VEC3"
        },
        {
            "bufferView" : 11,
            "componentType" : 5126,
            "count" : 63,
            "type" : "VEC4"
        },
        {
            "bufferView" : 12,
            "componentType" : 5126,
            "count" : 63,
            "type" : "VEC3"
        },
        {
            "bufferView" : 13,
            "componentType" : 5126,
            "count" : 63,
            "type" : "VEC3"
        },
        {
            "bufferView" : 14,
            "componentType" : 5126,
            "count" : 63,
            "type" : "VEC4"
        },
        {
            "bufferView" : 15,
            "componentType" : 5126,
            "count" : 63,
            "type" : "VEC3"
        },
        {
            "bufferView" : 16,
            "componentType" : 5126,
            "count" : 63,
            "type" : "VEC3"
        },
        {
            "bufferView" : 17,
            "componentType" : 5126,
            "count" : 63,
            "type" : "VEC4"
        },
        {
            "bufferView" : 18,
            "componentType" : 5126,
            "count" : 63,
            "type" : "VEC3"
        },
        {
            "bufferView" : 19,
            "componentType" : 5126,
            "count" : 63,
            "type" : "VEC3"
        },
        {
            "bufferView" : 20,
            "componentType" : 5126,
            "count" : 63,
            "type" : "VEC4"
        },
        {
            "bufferView" : 21,
            "componentType" : 5126,
            "count" : 63,
            "type" : "VEC3"
        }
    ],
    "bufferViews" : [
        {
            "buffer" : 0,
            "byteLength" : 61452,
            "byteOffset" : 0
        },
        {
            "buffer" : 0,
            "byteLength" : 61452,
            "byteOffset" : 61452
        },
        {
            "buffer" : 0,
            "byteLength" : 40968,
            "byteOffset" : 122904
        },
        {
            "buffer" : 0,
            "byteLength" : 40968,
            "byteOffset" : 163872
        },
        {
            "buffer" : 0,
            "byteLength" : 81936,
            "byteOffset" : 204840
        },
        {
            "buffer" : 0,
            "byteLength" : 29868,
            "byteOffset" : 286776
        },
        {
            "buffer" : 0,
            "byteLength" : 38085,
            "byteOffset" : 316644
        },
        {
            "buffer" : 0,
            "byteLength" : 73682,
            "byteOffset" : 354732
        },
        {
            "buffer" : 0,
            "byteLength" : 256,
            "byteOffset" : 428416
        },
        {
            "buffer" : 0,
            "byteLength" : 252,
            "byteOffset" : 428672
        },
        {
            "buffer" : 0,
            "byteLength" : 756,
            "byteOffset" : 428924
        },
        {
            "buffer" : 0,
            "byteLength" : 1008,
            "byteOffset" : 429680
        },
        {
            "buffer" : 0,
            "byteLength" : 756,
            "byteOffset" : 430688
        },
        {
            "buffer" : 0,
            "byteLength" : 756,
            "byteOffset" : 431444
        },
        {
            "buffer" : 0,
            "byteLength" : 1008,
            "byteOffset" : 432200
        },
        {
            "buffer" : 0,
            "byteLength" : 756,
            "byteOffset" : 433208
        },
        {
            "buffer" : 0,
            "byteLength" : 756,
            "byteOffset" : 433964
        },
        {
            "buffer" : 0,
            "byteLength" : 1008,
            "byteOffset" : 434720
        },
        {
            "buffer" : 0,
            "byteLength" : 756,
            "byteOffset" : 435728
        },
        {
            "buffer" : 0,
            "byteLength" : 756,
            "byteOffset" : 436484
        },
        {
            "buffer" : 0,
            "byteLength" : 1008,
            "byteOffset" : 437240
        },
        {
            "buffer" : 0,
            "byteLength" : 756,
            "byteOffset" : 438248
        }
    ],
    "buffers" : [
        {
            "byteLength" : 439004,
            "uri" : "data:application/octet-stream;base64,"
        }
    ]
}
